<svg width="578" height="498" viewBox="0 0 578 498" fill="none" xmlns="http://www.w3.org/2000/svg">
<path d="M576.399 247.05C576.399 383.41 467.367 493.952 332.87 493.952C198.372 493.952 89.3408 383.41 89.3408 247.05C89.3408 110.689 198.372 0.147217 332.87 0.147217C467.367 0.147217 576.399 110.689 576.399 247.05Z" fill="url(#paint0_linear_901_1363)"/>
<path d="M381.953 373.234C382.822 373.234 383.69 373.166 384.548 373.028C388.24 372.497 391.946 373.2 395.635 373.382C397.424 373.384 399.212 373.289 400.991 373.1C402.395 373.023 403.726 373.136 404.913 372.16C405.257 371.899 405.52 371.545 405.67 371.139C405.819 370.734 405.85 370.293 405.757 369.871C405.406 368.687 403.987 368.254 402.776 368.005L393.918 366.178C392.727 365.928 390.414 365.428 390.147 363.95C390.168 363.051 390.286 362.157 390.498 361.283C390.585 360.348 390.648 359.406 390.69 358.473C390.764 356.77 391.309 355.106 389.161 354.99L382.271 354.615C382.053 354.585 381.832 354.61 381.627 354.687C381.471 354.796 381.339 354.938 381.242 355.103C381.145 355.267 381.084 355.451 381.064 355.641L380.122 359.439C379.634 361.405 379.146 363.374 378.837 365.378C378.617 366.802 378.643 368.237 378.505 369.666C378.421 370.542 378.185 371.418 378.828 372.145C379.248 372.529 379.741 372.824 380.278 373.011C380.816 373.198 381.385 373.274 381.953 373.234Z" fill="#121632"/>
<path d="M399.1 380.956C399.134 381.219 399.228 381.472 399.375 381.693C399.522 381.914 399.718 382.099 399.948 382.232C401.086 382.562 402.26 382.749 403.444 382.789C405.099 383.117 406.789 383.226 408.472 383.114C409.724 383.004 410.95 382.72 412.201 382.668C415.764 382.521 419.403 383.885 422.92 382.875C424.133 382.527 426.184 381.749 426.549 380.36C427.03 378.539 425.409 377.393 423.904 376.974C421.958 376.45 419.955 376.169 417.94 376.137C417.125 376.154 416.31 376.09 415.507 375.944C415.074 375.87 414.662 375.703 414.3 375.454C413.938 375.205 413.634 374.88 413.409 374.502C413.185 374.124 413.045 373.702 413 373.265C412.955 372.827 413.006 372.385 413.149 371.97C413.754 369.467 414.332 366.964 414.923 364.462C410.776 364.104 406.6 364.377 402.535 365.271C402.304 365.257 402.077 365.334 401.903 365.487C401.729 365.639 401.622 365.854 401.606 366.085C400.954 368.814 401.288 371.385 400.371 374.001C399.922 375.26 398.665 378.905 399.1 380.956Z" fill="#121632"/>
<path d="M284.698 224.57C285.505 224.325 286.324 224.124 287.153 223.97C288.542 223.621 289.791 222.856 290.732 221.777C291.391 221.041 292.18 220.434 293.06 219.984C295.944 218.745 297.398 221.254 296.338 223.738C295.58 225.797 294.137 227.533 292.251 228.655C290.124 229.73 287.935 229.799 286.018 231.324C285.532 231.712 280.452 235.981 280.664 236.244C279.712 235.062 277.649 232.49 277.763 230.89C279.112 230.431 280.25 229.501 280.968 228.271C281.646 227.015 282.578 225.916 283.706 225.042C284.018 224.849 284.351 224.691 284.698 224.57Z" fill="white" stroke="#121632" stroke-miterlimit="10"/>
<path d="M241.728 289.567H239.536V337.891H241.728V289.567Z" fill="#121632"/>
<path d="M221.477 348.031C221.477 340.898 234.104 337.904 240.413 337.895C247.921 337.88 259.348 340.648 259.348 348.031" stroke="#121632" stroke-width="2" stroke-miterlimit="10"/>
<path d="M240.625 349.939V338.087" stroke="#121632" stroke-width="2" stroke-miterlimit="10"/>
<path d="M262.447 349.753C262.447 350.366 262.265 350.965 261.925 351.474C261.584 351.984 261.1 352.381 260.534 352.615C259.968 352.85 259.345 352.911 258.744 352.792C258.143 352.672 257.591 352.377 257.158 351.944C256.724 351.51 256.429 350.958 256.31 350.357C256.19 349.756 256.251 349.133 256.486 348.567C256.72 348.001 257.118 347.517 257.627 347.177C258.137 346.836 258.736 346.655 259.348 346.655C259.755 346.654 260.158 346.734 260.534 346.89C260.91 347.046 261.252 347.274 261.54 347.562C261.827 347.849 262.056 348.191 262.211 348.567C262.367 348.943 262.447 349.346 262.447 349.753Z" fill="#121632"/>
<path d="M243.668 349.753C243.668 350.366 243.486 350.965 243.146 351.474C242.805 351.984 242.321 352.381 241.755 352.615C241.189 352.85 240.566 352.911 239.965 352.792C239.364 352.672 238.812 352.377 238.379 351.944C237.945 351.51 237.65 350.958 237.531 350.357C237.411 349.756 237.473 349.133 237.707 348.567C237.942 348.001 238.339 347.517 238.848 347.177C239.358 346.836 239.957 346.655 240.57 346.655C240.977 346.654 241.38 346.734 241.756 346.89C242.132 347.046 242.473 347.274 242.761 347.562C243.049 347.849 243.277 348.191 243.432 348.567C243.588 348.943 243.668 349.346 243.668 349.753Z" fill="#121632"/>
<path d="M224.889 349.753C224.889 350.366 224.707 350.965 224.367 351.474C224.027 351.984 223.543 352.381 222.977 352.615C222.41 352.85 221.787 352.911 221.186 352.792C220.585 352.672 220.033 352.377 219.6 351.944C219.167 351.51 218.872 350.958 218.752 350.357C218.632 349.756 218.694 349.133 218.928 348.567C219.163 348.001 219.56 347.517 220.069 347.177C220.579 346.836 221.178 346.655 221.791 346.655C222.198 346.654 222.601 346.734 222.977 346.89C223.353 347.046 223.694 347.274 223.982 347.562C224.27 347.849 224.498 348.191 224.654 348.567C224.809 348.943 224.889 349.346 224.889 349.753Z" fill="#121632"/>
<path d="M238.504 273.345V237.791C238.504 234.837 237.331 232.004 235.242 229.916C233.154 227.827 230.321 226.654 227.367 226.654H215.098C212.144 226.654 209.311 227.827 207.223 229.916C205.134 232.004 203.961 234.837 203.961 237.791V277.539C203.973 281.768 205.659 285.821 208.649 288.812C211.64 291.803 215.693 293.489 219.923 293.501H259.922C260.42 293.501 260.898 293.303 261.25 292.951C261.602 292.599 261.799 292.122 261.799 291.624C261.799 291.126 261.602 290.649 261.25 290.297C260.898 289.945 260.42 289.747 259.922 289.747H254.917C252.762 289.749 250.628 289.326 248.637 288.502C246.645 287.679 244.836 286.471 243.312 284.947C241.787 283.424 240.578 281.616 239.753 279.625C238.929 277.634 238.504 275.5 238.504 273.345Z" fill="white" stroke="#121632" stroke-miterlimit="10"/>
<path d="M316.069 339.872C316.361 340.406 316.68 340.924 317.025 341.424C317.657 342.293 318.491 342.994 319.455 343.467C320.42 343.939 321.485 344.169 322.559 344.134C324.705 343.85 326.806 343.091 328.968 343.196C329.773 343.181 330.556 343.456 331.173 343.972C333.676 346.406 327.718 348.583 326.079 349.075L314.899 352.425C314.216 352.688 313.48 352.788 312.751 352.715C312.109 352.615 311.514 352.318 311.048 351.866C310.581 351.414 310.266 350.829 310.146 350.191C309.61 348.564 308.968 346.99 308.321 345.378C307.277 342.776 306.45 340.091 305.848 337.352C305.623 336.599 305.589 335.802 305.75 335.033C305.931 334.469 306.279 333.973 306.748 333.61C307.217 333.248 307.785 333.036 308.377 333.004C308.891 333.03 309.397 333.135 309.879 333.314C313.321 334.403 314.393 336.86 316.069 339.872Z" fill="white" stroke="#121632" stroke-miterlimit="10"/>
<path d="M294.881 282.681C294.989 280.213 294.615 277.747 293.78 275.423C293.139 273.59 292.107 271.919 290.755 270.526C289.403 269.133 287.763 268.052 285.951 267.357C283.845 266.747 281.661 266.452 279.469 266.481L251.104 265.479C242.88 265.189 233.376 271.854 233.628 280.884C233.783 286.466 237.592 292.271 243.612 292.449C243.745 292.449 243.875 292.439 244.008 292.442L270.954 292.589C277.266 292.624 285.5 295.24 291.202 291.758C292.014 291.295 292.721 290.669 293.277 289.918C293.852 288.99 294.231 287.954 294.39 286.874C294.668 285.492 294.832 284.089 294.881 282.681Z" fill="#121632"/>
<path d="M257.964 279.602C266.636 284.316 250.642 292.424 242.31 292.45L227.823 292.474C219.439 292.474 212.932 288.27 212.67 279.998V254.971L244.78 255.048C244.78 255.048 248.541 274.482 257.964 279.602Z" fill="#121632"/>
<path d="M289.345 283.494C282.605 279 255.4 272.401 251.694 270.942C244.317 267.977 236.311 266.923 228.419 267.88C221.765 268.756 214.789 269.882 213.137 277.39C212.427 280.618 213.028 283.996 214.808 286.781C216.589 289.566 219.402 291.53 222.63 292.241C222.783 292.275 222.934 292.29 223.085 292.323L285.569 304.662C285.707 304.699 285.841 304.744 285.982 304.776C286.313 304.848 286.647 304.903 286.983 304.942C289.256 305.276 291.569 304.707 293.427 303.356C295.286 302.005 296.541 299.981 296.924 297.716C298.115 292.322 295.033 287.286 289.345 283.494Z" fill="#121632"/>
<path d="M280.934 342.834C280.861 343.777 280.999 344.723 281.337 345.606C281.675 346.489 282.205 347.286 282.888 347.938C285.342 350.27 289.145 350.6 291.784 352.721C292.034 352.899 292.238 353.133 292.38 353.404C292.475 353.687 292.485 353.992 292.407 354.28C292.328 354.568 292.166 354.826 291.941 355.021C289.624 357.232 284.307 355.066 281.604 354.586L271.413 352.769C271.198 352.732 270.993 352.652 270.809 352.534C270.626 352.417 270.468 352.263 270.345 352.083C270.222 351.903 270.136 351.7 270.093 351.486C270.05 351.272 270.051 351.052 270.094 350.838L272.052 341.154L272.331 339.72C272.44 339.155 272.662 338.619 272.982 338.141C273.302 337.663 273.714 337.255 274.194 336.938C274.674 336.622 275.212 336.405 275.778 336.3C276.343 336.195 276.923 336.204 277.485 336.326C278.485 336.573 279.372 337.153 280 337.969C280.629 338.786 280.961 339.792 280.944 340.822C280.944 341.524 280.925 342.192 280.934 342.834Z" fill="white" stroke="#121632" stroke-miterlimit="10"/>
<path d="M227.257 208.907C226.989 207.504 245.669 216.423 245.402 215.021C246.423 221.1 247.398 227.187 248.329 233.281C249.204 239.037 249.778 244.875 251.626 250.425C252.234 252.302 253.151 255.63 255.276 256.391C257.971 257.357 259.751 256.954 262.461 256.983C263.626 257.048 264.793 256.954 265.933 256.705C269.073 255.865 271.089 252.843 272.467 249.899C273.723 246.867 275.801 244.247 278.467 242.333C280.508 240.84 282.471 239.248 284.356 237.558C285.049 236.933 286.794 235.826 287.115 234.96C287.478 233.982 286.883 233.635 286.177 232.916C283.906 230.603 281.395 228.49 279.258 226.049L272.9 231.931L268.375 236.119C267.649 236.79 263.66 239.464 263.716 240.123C263.521 235.345 262.698 230.613 261.269 226.049C261.055 225.543 260.905 225.013 260.82 224.47C260.793 223.742 260.878 223.014 261.07 222.31C261.795 218.518 261.294 214.594 259.639 211.106C258.969 209.44 257.927 207.949 256.595 206.745C255.263 205.541 253.674 204.656 251.949 204.157C249.685 203.342 247.356 202.721 244.986 202.301C244.587 202.243 244.048 202.285 243.958 202.677C243.94 202.834 242.149 203.144 244.01 203.144H233.734L227.257 208.907Z" fill="white"/>
<path d="M247.879 225.316L248.278 225.249M247.491 225.381L247.628 225.359M227.257 208.907C226.989 207.504 245.669 216.423 245.402 215.021C246.423 221.1 247.398 227.187 248.329 233.281C249.204 239.037 249.778 244.875 251.626 250.425C252.234 252.302 253.151 255.63 255.276 256.391C257.971 257.357 259.751 256.954 262.461 256.983C263.626 257.048 264.793 256.954 265.933 256.705C269.073 255.865 271.089 252.843 272.467 249.899C273.723 246.867 275.801 244.247 278.467 242.333C280.508 240.84 282.471 239.248 284.356 237.558C285.049 236.933 286.794 235.826 287.115 234.96C287.478 233.982 286.883 233.635 286.177 232.916C283.906 230.603 281.395 228.49 279.258 226.049L272.9 231.931L268.375 236.119C267.649 236.79 263.66 239.464 263.716 240.123C263.521 235.345 262.698 230.613 261.269 226.049C261.055 225.543 260.905 225.013 260.82 224.47C260.793 223.742 260.878 223.014 261.07 222.31C261.795 218.518 261.294 214.594 259.639 211.106C258.969 209.44 257.927 207.949 256.595 206.745C255.263 205.541 253.674 204.656 251.949 204.157C249.685 203.342 247.356 202.721 244.986 202.301C244.587 202.243 244.048 202.285 243.958 202.677C243.94 202.834 242.149 203.144 244.01 203.144H233.734L227.257 208.907Z" stroke="#121632" stroke-miterlimit="10"/>
<path d="M317.028 337.381C311.529 325.987 307.585 314.053 303.337 302.153C301.303 296.454 299.207 290.598 295.461 285.76C293.726 283.518 292.143 281.787 289.273 281.169C286.663 280.711 283.984 280.822 281.421 281.493C279.998 281.815 278.728 282.567 277.321 282.882C275.422 283.309 272.485 282.856 271.731 285.246C271.472 286.349 271.511 287.501 271.844 288.585C272.266 290.396 272.84 292.169 273.561 293.884C274.487 296.09 275.654 298.197 276.432 300.46C277.025 302.183 277.386 303.985 278.076 305.673C279.214 308.384 281.091 310.72 283.492 312.417C285.037 313.287 286.423 314.414 287.592 315.748C288.156 316.793 288.577 317.909 288.844 319.066C289.991 322.097 291.306 325.338 294.049 327.061C294.819 327.433 295.522 327.929 296.132 328.529C296.471 329.004 296.729 329.533 296.895 330.093C297.409 331.776 298.193 333.365 299.215 334.798C300.197 336.05 301.496 336.992 302.492 338.221C303.333 339.555 304.017 340.983 304.529 342.475C304.737 342.904 317.103 337.54 317.028 337.381Z" fill="#121632"/>
<path d="M234.403 202.414L229.522 202.915C224.347 203.448 218.852 204.107 214.805 207.377C212.347 209.402 210.442 212.018 209.27 214.98C208.099 217.942 207.698 221.152 208.106 224.311C208.679 227.676 209.741 230.959 210.108 234.36C211.324 245.686 212.214 257.04 212.778 268.423C218.284 268.173 223.79 268.124 229.296 267.835C236.044 267.481 243.645 267.184 250.118 264.734C250.869 255.349 253.419 246.081 253.274 236.661L253.06 222.851" fill="white"/>
<path d="M234.403 202.414L229.522 202.915C224.347 203.448 218.852 204.107 214.805 207.377C212.347 209.402 210.442 212.018 209.27 214.98C208.099 217.942 207.698 221.152 208.106 224.311C208.679 227.676 209.741 230.959 210.108 234.36C211.324 245.686 212.214 257.04 212.778 268.423C218.284 268.173 223.79 268.124 229.296 267.835C236.044 267.481 243.645 267.184 250.118 264.734C250.869 255.349 253.419 246.081 253.274 236.661L253.06 222.851" stroke="#121632" stroke-miterlimit="10"/>
<path d="M293.457 312.513C293.585 312.243 293.71 311.971 293.832 311.697C294.07 311.149 294.263 310.584 294.41 310.005C296.186 303.27 298.54 295.97 297.807 288.701C297.17 282.352 297.222 274.274 291.049 270.41C285.919 267.2 278.786 265.102 274.348 270.424C273.427 271.559 272.761 272.879 272.393 274.294C269.681 284.148 274.214 292.643 272.912 301.87C272.453 304.171 272.391 306.533 272.73 308.855C272.886 309.617 273.129 310.357 273.23 311.134C273.317 313.046 273.024 314.956 272.369 316.755C271.775 318.698 271.485 320.721 271.508 322.753C271.6 324.834 272.224 326.87 272.247 328.953C272.21 330.483 272.009 332.004 271.648 333.49C271.253 335.421 269.366 339.331 271.877 340.123C273.419 340.611 275.211 340.513 276.806 340.928C277.331 341.065 281.196 342.055 283.178 342.734C283.314 342.778 283.458 342.791 283.599 342.773C283.74 342.755 283.876 342.705 283.996 342.628C284.115 342.55 284.216 342.447 284.292 342.326C284.367 342.205 284.414 342.069 284.43 341.927C284.791 339.188 286.108 336.307 286.827 333.723C287.78 330.303 288.666 326.869 289.484 323.422C289.877 321.765 290.255 320.101 290.782 318.482C291.545 316.437 292.439 314.443 293.457 312.513Z" fill="#121632"/>
<path d="M247.069 189.327L245.129 177.564L237.549 179.328C235.239 179.865 233.238 181.298 231.984 183.312C230.731 185.325 230.329 187.753 230.866 190.063L231.535 192.941C231.797 194.063 232.3 195.114 233.009 196.022L231.485 203.155C231.302 203.95 231.282 204.774 231.427 205.578C231.572 206.381 231.879 207.147 232.328 207.828C232.778 208.509 233.361 209.092 234.042 209.542C234.724 209.991 235.489 210.298 236.292 210.443C237.096 210.588 237.92 210.568 238.715 210.386C239.511 210.203 240.261 209.86 240.92 209.379C241.58 208.898 242.135 208.288 242.551 207.586C242.968 206.884 243.238 206.105 243.345 205.296L244.55 197.141C245.639 196.189 246.449 194.96 246.893 193.583C247.336 192.207 247.397 190.736 247.069 189.327Z" fill="white" stroke="#121632" stroke-miterlimit="10"/>
<path d="M249.114 251.572C252.398 252.415 255.539 253.74 258.435 255.503C261.154 256.962 261.689 259.65 258.07 260.301C256.124 260.784 254.103 260.883 252.12 260.593C250.07 260.154 249.482 258.966 248.162 257.647C247.035 256.521 245.126 257.074 243.499 256.365C243.171 256.255 242.869 256.079 242.611 255.849C242.352 255.619 242.144 255.338 241.998 255.025C241.846 254.358 241.935 253.66 242.248 253.052C242.432 252.469 242.747 251.936 243.169 251.493C243.662 251.146 244.232 250.922 244.829 250.84C245.427 250.757 246.036 250.818 246.605 251.018C247.435 251.212 248.274 251.388 249.114 251.572Z" fill="white" stroke="#121632" stroke-miterlimit="10"/>
<path d="M245.547 179.513C244.272 180.484 242.779 181.129 241.198 181.39C239.737 181.519 238.285 181.747 236.855 182.073C233.087 183.266 233.601 187.423 233.922 190.602C234.037 191.722 233.028 195.49 231.471 194.892C230.452 194.892 230.283 193.372 230.045 192.717C229.583 191.455 229.064 190.215 228.574 188.956C228.169 188.108 227.959 187.18 227.96 186.24C228.065 184.878 229.038 183.73 229.328 182.395C229.549 181.366 229.355 180.288 229.524 179.25C229.656 178.549 229.93 177.883 230.329 177.292C230.729 176.702 231.245 176.199 231.846 175.815C233.611 174.653 235.697 175.107 237.477 174.131C238.387 173.489 239.254 172.787 240.071 172.029C240.749 171.536 241.52 171.185 242.337 170.999C243.154 170.813 244.001 170.794 244.826 170.944C245.534 171.044 246.206 171.322 246.779 171.751C247.351 172.181 247.806 172.747 248.102 173.399C248.29 174.03 248.34 174.694 248.249 175.346C248.158 175.998 247.928 176.623 247.574 177.178C247.061 178.084 246.371 178.878 245.547 179.513Z" fill="#121632"/>
<path d="M235.511 189.191C235.625 189.676 235.592 190.184 235.418 190.651C235.243 191.118 234.933 191.522 234.529 191.813C234.124 192.103 233.642 192.268 233.144 192.285C232.646 192.301 232.154 192.17 231.73 191.907C231.307 191.645 230.971 191.262 230.765 190.808C230.559 190.354 230.492 189.85 230.573 189.358C230.654 188.866 230.879 188.41 231.22 188.046C231.56 187.682 232.001 187.427 232.486 187.314C233.136 187.162 233.82 187.274 234.387 187.626C234.954 187.978 235.359 188.541 235.511 189.191Z" fill="white"/>
<path d="M208.105 218.958C207.499 224.075 207.392 229.25 207.09 234.403C206.637 240.03 207.149 245.692 208.603 251.147C209.02 252.876 209.801 254.497 210.894 255.902C215.086 260.782 225.421 258.78 231.116 258.78H245.196C245.266 258.561 245.321 258.338 245.396 258.12C245.772 256.193 247.017 251.63 247.36 249.689L238.428 248.959L230.713 248.333C228.646 248.165 225.495 248.644 225.146 245.906C225.157 244.937 225.034 243.971 224.782 243.035C224.215 241.709 222.622 240.972 222.249 239.579C222.161 238.44 222.25 237.294 222.512 236.182C222.745 234.614 223.244 233.098 223.986 231.698C225.063 229.211 225.847 226.608 226.323 223.94L225.875 223.911" fill="white"/>
<path d="M208.105 218.958C207.499 224.075 207.392 229.25 207.09 234.403C206.637 240.03 207.149 245.692 208.603 251.147C209.02 252.876 209.801 254.497 210.894 255.902C215.086 260.782 225.421 258.78 231.116 258.78H245.196C245.266 258.561 245.321 258.338 245.396 258.12C245.772 256.193 247.017 251.63 247.36 249.689L238.428 248.959L230.713 248.333C228.646 248.165 225.495 248.644 225.146 245.906C225.157 244.937 225.034 243.971 224.782 243.035C224.215 241.709 222.622 240.972 222.249 239.579C222.161 238.44 222.25 237.294 222.512 236.182C222.745 234.614 223.244 233.098 223.986 231.698C225.063 229.211 225.847 226.608 226.323 223.94L225.875 223.911" stroke="#121632" stroke-miterlimit="10"/>
<path d="M310.277 258.265H255.718C255.718 257.76 255.919 257.275 256.277 256.917C256.634 256.559 257.12 256.358 257.625 256.358H310.273L310.277 258.265Z" fill="#7B2BFF"/>
<path d="M319.65 256.358H265.135L274.857 227.566C275.041 227.069 275.376 226.641 275.815 226.343C276.254 226.045 276.775 225.891 277.306 225.903H326.446C326.831 225.881 327.214 225.952 327.566 226.109C327.917 226.266 328.226 226.505 328.466 226.806C328.706 227.106 328.87 227.46 328.945 227.838C329.02 228.215 329.003 228.605 328.896 228.975L319.65 256.358Z" fill="#7B2BFF"/>
<path d="M318.699 258.265H264.874V256.358L319.65 253.856V257.314C319.65 257.567 319.55 257.808 319.371 257.987C319.193 258.165 318.951 258.265 318.699 258.265Z" fill="#7B2BFF"/>
<path d="M297.748 241.812C296.684 241.766 295.676 240.906 296.393 239.654C296.56 239.399 296.788 239.19 297.057 239.045C297.326 238.901 297.627 238.826 297.932 238.827C297.961 238.826 297.99 238.821 298.018 238.815C298.05 238.833 298.085 238.846 298.121 238.856C298.497 238.923 298.833 239.133 299.059 239.441C299.285 239.749 299.384 240.132 299.337 240.511C299.289 240.89 299.097 241.236 298.802 241.478C298.506 241.72 298.129 241.839 297.748 241.812Z" fill="#C9CDD1"/>
<path d="M263.82 239.876C263.657 240.273 263.432 240.64 263.152 240.964C262.894 241.312 262.657 241.674 262.441 242.048C262.249 242.307 262.072 242.577 261.911 242.857" fill="white"/>
<path d="M263.82 239.876C263.657 240.273 263.432 240.64 263.152 240.964C262.894 241.312 262.657 241.674 262.441 242.048C262.249 242.307 262.072 242.577 261.911 242.857" stroke="#121632" stroke-miterlimit="10"/>
<path d="M238.484 196.944C240.142 199.01 242.363 200.595 243.859 202.783L244.388 198.589C244.524 197.857 244.698 197.133 244.91 196.42C242.679 196.937 240.818 197.514 238.484 196.944Z" fill="#121632"/>
<path d="M241.087 191.67C241.138 192.025 241.296 192.355 241.541 192.617C241.785 192.879 242.104 193.059 242.455 193.134C242.807 193.197 243.17 193.171 243.51 193.056C243.849 192.942 244.154 192.744 244.397 192.48C244.634 192.212 244.817 191.9 244.933 191.562C245.049 191.224 245.097 190.866 245.074 190.509C245.063 190.506 245.052 190.506 245.041 190.509C245.03 190.511 245.02 190.517 245.012 190.525C245.004 190.534 244.999 190.544 244.997 190.555C244.994 190.566 244.995 190.577 244.999 190.588" fill="#121632"/>
<path d="M233.413 188.848C233.205 188.805 232.99 188.817 232.788 188.883C232.586 188.949 232.405 189.066 232.263 189.224C232.126 189.385 232.039 189.584 232.014 189.795C231.989 190.005 232.026 190.219 232.122 190.409C232.225 190.594 232.387 190.74 232.581 190.825C232.776 190.909 232.993 190.928 233.199 190.878" fill="#121632"/>
<path d="M272.154 308.928C271.939 306.348 272.201 303.751 272.927 301.267C273.468 299.419 274.097 297.781 273.659 295.886C273.09 294.171 273.09 292.317 273.659 290.602" stroke="white" stroke-miterlimit="10"/>
<path d="M296.244 272.695C300.574 283.823 296.87 296.247 293.803 307.788C291.809 315.303 290.102 322.885 288.682 330.536" stroke="white" stroke-miterlimit="10"/>
<path d="M213.193 252.623C213.103 253.085 213.187 253.563 213.427 253.967C213.556 254.189 213.738 254.376 213.957 254.51C214.512 254.754 215.134 254.802 215.719 254.644" fill="#121632"/>
<path d="M241.225 229.019L241.371 228.894L241.225 229.019Z" fill="#121632"/>
<path d="M356.3 107.283C360.447 107.283 363.808 103.921 363.808 99.7747C363.808 95.6281 360.447 92.2666 356.3 92.2666C352.154 92.2666 348.792 95.6281 348.792 99.7747C348.792 103.921 352.154 107.283 356.3 107.283Z" fill="#121632"/>
<path d="M507.714 107.283C511.86 107.283 515.222 103.921 515.222 99.7747C515.222 95.6281 511.86 92.2666 507.714 92.2666C503.567 92.2666 500.206 95.6281 500.206 99.7747C500.206 103.921 503.567 107.283 507.714 107.283Z" fill="#121632"/>
<path d="M204.887 107.283C209.033 107.283 212.395 103.921 212.395 99.7747C212.395 95.6281 209.033 92.2666 204.887 92.2666C200.74 92.2666 197.379 95.6281 197.379 99.7747C197.379 103.921 200.74 107.283 204.887 107.283Z" fill="#121632"/>
<path d="M231.597 97.0304V96.7726C231.597 89.7228 228.797 82.9618 223.812 77.9769C218.827 72.9919 212.066 70.1914 205.016 70.1914C197.966 70.1914 191.205 72.9919 186.22 77.9769C181.235 82.9618 178.435 89.7228 178.435 96.7726V97.0304H231.597Z" fill="#7B2BFF"/>
<path d="M534.027 97.0304V96.7726C534.027 89.7228 531.227 82.9618 526.242 77.9769C521.257 72.9919 514.496 70.1914 507.446 70.1914C500.396 70.1917 493.635 72.9923 488.65 77.9772C483.666 82.9621 480.865 89.7229 480.865 96.7726V97.0304H534.027Z" fill="#7B2BFF"/>
<path d="M508.044 28.7517V70.1914" stroke="white" stroke-width="2" stroke-miterlimit="10"/>
<path d="M382.614 97.0304V96.7726C382.614 93.2819 381.926 89.8254 380.59 86.6004C379.254 83.3754 377.296 80.4451 374.828 77.9769C372.36 75.5086 369.43 73.5506 366.205 72.2148C362.98 70.8789 359.523 70.1914 356.032 70.1914C348.983 70.1917 342.222 72.9923 337.237 77.9772C332.252 82.9621 329.452 89.7229 329.451 96.7726V97.0304H382.614Z" fill="#7B2BFF"/>
<path d="M356.63 28.7517V70.1914" stroke="white" stroke-width="2" stroke-miterlimit="10"/>
<path d="M470.645 241.077C470.634 242.352 470.747 242.905 469.63 243.387C468.293 243.713 466.926 243.906 465.551 243.964C462.866 244.369 460.287 245.3 457.961 246.703C454.038 249.243 449.35 249.744 445.257 252.35C444.599 252.825 443.877 253.204 443.113 253.477C442.122 253.68 441.105 253.725 440.1 253.609C438.635 253.483 437.159 253.658 435.764 254.122C434.369 254.587 433.083 255.331 431.986 256.31C431.638 256.495 431.354 256.78 431.17 257.128C430.986 257.476 430.911 257.872 430.954 258.263C430.997 258.655 431.156 259.024 431.411 259.324C431.666 259.624 432.006 259.841 432.385 259.946C435.948 261.555 439.697 260.502 443.147 259.18C446.247 258.215 449.468 257.688 452.715 257.615C457.855 257.239 463.068 257.523 468.141 256.466C470.898 255.973 473.579 255.125 476.119 253.945C478.406 252.797 481.249 251.642 482.349 249.128C482.548 248.639 482.706 248.133 482.822 247.618C483.776 243.864 484.729 240.106 485.681 236.344C486.272 233.444 486.46 230.476 486.242 227.525C486.173 225.039 485.744 222.576 484.969 220.213C484.482 218.29 483.768 216.432 482.842 214.677C482.332 213.898 481.656 213.242 480.862 212.756C480.068 212.27 479.176 211.966 478.251 211.865C474.538 211.49 471.012 213.905 471.255 217.836C471.552 222.638 469.967 227.37 471.027 232.145C471.184 232.708 471.279 233.287 471.312 233.87C471.284 234.441 471.198 235.008 471.053 235.561C470.735 237.382 470.598 239.229 470.645 241.077Z" fill="white" stroke="#121632" stroke-miterlimit="10"/>
<path d="M458.501 326.957C460.002 329.191 461.07 331.31 460.672 334.289C460.088 338.669 456.514 341.571 455.57 345.823C455.462 346.214 455.446 346.626 455.525 347.024C455.654 347.422 455.883 347.78 456.19 348.065C456.496 348.35 456.871 348.551 457.277 348.651C461.406 349.738 465.028 343.663 467.364 341.312L476.182 332.435C476.557 331.979 476.741 331.398 476.697 330.81C476.653 330.223 476.385 329.674 475.947 329.28L466.104 319.11L464.659 317.597C462.261 315.095 458.667 314.812 456.695 316.983C454.991 318.86 455.127 322.067 456.853 324.586C457.427 325.413 457.989 326.192 458.501 326.957Z" fill="#121632"/>
<path d="M491.373 334.278H493.564V285.953H491.373V334.278Z" fill="#121632"/>
<path d="M511.629 344.422C511.629 337.29 499.003 334.294 492.694 334.286C485.186 334.271 473.758 337.039 473.758 344.422" stroke="#121632" stroke-width="2" stroke-miterlimit="10"/>
<path d="M492.475 346.326V334.473" stroke="#121632" stroke-width="2" stroke-miterlimit="10"/>
<path d="M470.654 346.139C470.654 346.752 470.836 347.351 471.177 347.861C471.517 348.37 472.001 348.767 472.567 349.002C473.133 349.236 473.756 349.298 474.357 349.178C474.958 349.059 475.51 348.763 475.944 348.33C476.377 347.897 476.672 347.345 476.792 346.744C476.911 346.143 476.85 345.52 476.615 344.954C476.381 344.388 475.984 343.904 475.474 343.563C474.965 343.223 474.366 343.041 473.753 343.041C473.346 343.041 472.943 343.121 472.567 343.277C472.191 343.432 471.849 343.66 471.562 343.948C471.274 344.236 471.046 344.577 470.89 344.953C470.734 345.329 470.654 345.732 470.654 346.139Z" fill="#121632"/>
<path d="M489.433 346.139C489.433 346.752 489.615 347.351 489.955 347.861C490.296 348.37 490.78 348.767 491.346 349.002C491.912 349.236 492.535 349.298 493.136 349.178C493.737 349.059 494.289 348.763 494.722 348.33C495.156 347.897 495.451 347.345 495.57 346.744C495.69 346.143 495.629 345.52 495.394 344.954C495.16 344.388 494.762 343.904 494.253 343.563C493.743 343.223 493.144 343.041 492.532 343.041C492.125 343.041 491.722 343.121 491.346 343.277C490.97 343.432 490.628 343.66 490.34 343.948C490.053 344.236 489.824 344.577 489.669 344.953C489.513 345.329 489.433 345.732 489.433 346.139Z" fill="#121632"/>
<path d="M508.211 346.139C508.211 346.752 508.392 347.352 508.733 347.862C509.073 348.372 509.557 348.769 510.123 349.004C510.69 349.239 511.313 349.3 511.914 349.181C512.516 349.061 513.068 348.766 513.502 348.333C513.935 347.899 514.231 347.347 514.35 346.746C514.47 346.144 514.409 345.521 514.174 344.955C513.94 344.388 513.542 343.904 513.033 343.563C512.523 343.223 511.923 343.041 511.31 343.041C510.903 343.041 510.5 343.121 510.124 343.276C509.748 343.432 509.407 343.66 509.119 343.948C508.831 344.236 508.603 344.577 508.447 344.953C508.291 345.329 508.211 345.732 508.211 346.139Z" fill="#121632"/>
<path d="M494.597 269.732V234.178C494.597 231.225 495.77 228.392 497.859 226.303C499.948 224.215 502.78 223.041 505.734 223.041H518.011C520.965 223.041 523.798 224.215 525.886 226.303C527.975 228.392 529.148 231.225 529.148 234.178V273.926C529.136 278.156 527.45 282.209 524.459 285.2C521.469 288.191 517.416 289.876 513.186 289.889H473.189C472.691 289.889 472.214 289.691 471.862 289.339C471.51 288.987 471.312 288.509 471.312 288.012C471.312 287.514 471.51 287.036 471.862 286.684C472.214 286.332 472.691 286.135 473.189 286.135H478.194C480.348 286.135 482.482 285.711 484.472 284.887C486.462 284.062 488.27 282.854 489.794 281.331C491.317 279.808 492.525 278 493.349 276.009C494.173 274.019 494.597 271.886 494.597 269.732Z" fill="white" stroke="#121632" stroke-miterlimit="10"/>
<path d="M455.154 338.263C454.676 340.909 453.974 343.177 451.615 345.042C448.15 347.782 443.563 347.383 439.929 349.782C439.579 349.988 439.281 350.273 439.06 350.614C438.877 350.99 438.794 351.407 438.817 351.825C438.841 352.243 438.97 352.648 439.194 353.002C441.409 356.658 448.233 354.807 451.546 354.742L464.06 354.492C464.645 354.425 465.182 354.134 465.56 353.681C465.937 353.228 466.125 352.647 466.084 352.059V337.915L466.097 335.822C466.118 332.353 463.728 329.655 460.801 329.843C458.272 330.006 456.139 332.407 455.628 335.418C455.455 336.407 455.318 337.357 455.154 338.263Z" fill="#121632"/>
<path d="M478.343 249.171C478.358 249.122 478.365 249.072 478.378 249.022L478.343 249.171Z" fill="#7A483A"/>
<path d="M486.717 209.344L486.555 210.12L486.717 209.344Z" fill="#7A483A"/>
<path d="M478.467 248.582C478.441 248.732 478.402 248.876 478.365 249.021L478.49 248.458C478.484 248.499 478.481 248.54 478.467 248.582Z" fill="#7A483A"/>
<path d="M470.116 218.186L471.441 207.271L470.144 218.19L470.116 218.186Z" fill="#7A483A"/>
<path d="M471.829 207.383C472.23 205.915 472.917 204.54 473.85 203.338C474.784 202.135 475.945 201.129 477.268 200.376C478.118 199.975 478.996 199.637 479.896 199.366C482.16 198.55 484.489 197.929 486.859 197.51C487.258 197.451 487.797 197.494 487.887 197.886C487.904 198.043 487.886 198.202 487.835 198.351C487.696 198.977 488.035 199.521 487.95 200.134C487.791 200.94 487.588 201.736 487.34 202.519C486.833 204.125 486.614 205.808 486.691 207.49C486.95 210.001 485.626 212.12 485.626 214.537C485.542 214.936 484.391 220.596 484.352 220.59L470.144 218.191C470.585 214.523 470.671 210.829 471.829 207.383Z" fill="#121632"/>
<path d="M436.415 277.715C436.262 276.155 436.448 274.579 436.961 273.097C437.985 269.937 441.049 267.803 444.241 266.886C447.485 266.168 450.805 265.846 454.127 265.929C460.759 265.687 467.433 263.593 474.038 263.87C475.75 263.943 477.438 264.416 479.151 264.35C483.663 264.176 487.39 260.358 491.897 260.063C493.379 260.007 494.858 260.219 496.265 260.688C498.619 261.299 500.753 262.565 502.419 264.337C505.515 267.935 505.234 273.426 503.462 277.829C502.787 279.629 501.774 281.283 500.478 282.702C498.539 284.549 496.175 285.891 493.595 286.61C490.885 287.383 488.059 287.674 485.248 287.47L465.017 287.306C460.059 287.266 455.123 287.906 450.157 287.5C444.042 286.998 437.122 283.872 436.415 277.715Z" fill="#121632"/>
<path d="M441.408 268.448C442.606 267.434 444.053 266.757 445.599 266.487C447.145 266.216 448.736 266.362 450.207 266.909C451.916 267.56 453.433 268.63 454.621 270.021C460.677 276.892 461.868 288.254 463.654 296.866C464.695 301.883 465.609 306.924 466.395 311.989C466.619 313.437 469.164 326.355 468.317 326.78C467.488 327.195 453.567 328.487 453.685 328.794C451.008 321.837 447.856 314.873 445.676 307.763C444.257 303.81 442.628 299.937 440.796 296.158C438.795 291.552 437.285 286.748 436.291 281.825C435.724 279.339 435.908 276.741 436.818 274.36C437.729 271.978 439.326 269.921 441.408 268.448Z" fill="#121632"/>
<path d="M478.728 278.56C478.564 278.779 478.406 279.003 478.26 279.236C474.005 286.006 485.423 287.649 489.54 287.655L504.021 287.679C512.405 287.679 518.912 283.475 519.175 275.203V250.176L501.261 250.219C497.683 250.228 493.718 249.75 490.174 250.247C487.637 250.602 487.955 250.028 486.908 252.531C485.593 255.67 486.272 260.654 485.699 264.069C485.135 268.462 483.435 272.632 480.765 276.166C480.094 276.975 479.357 277.725 478.728 278.56Z" fill="#7B2BFF"/>
<path d="M465.733 299.448C464.807 299.092 463.606 297.489 462.597 297.734C461.657 297.962 460.823 299.715 460.422 300.487C459.33 302.591 458.719 304.985 457.142 306.811C457.006 306.992 456.826 307.136 456.62 307.231C456.379 307.279 456.129 307.262 455.896 307.182C455.663 307.102 455.455 306.961 455.294 306.774C452.265 304.071 452.051 298.64 451.843 294.853C451.71 291.701 452.398 288.569 453.841 285.763C455.284 282.958 457.432 280.576 460.073 278.852C461.871 277.79 463.746 276.865 465.682 276.084C471.878 273.34 477.835 270.086 483.492 266.356C485.84 264.827 488.35 263.563 490.976 262.587C495.593 260.781 500.609 260.241 505.505 261.025C511.46 261.988 517.44 263.202 519.331 271.661C520.799 278.238 518.257 284.3 513.825 285.912C513.723 285.948 513.622 285.969 513.522 286.006L472.398 299.749C472.311 299.785 472.232 299.828 472.141 299.861C471.92 299.94 471.695 300.007 471.466 300.059C469.537 300.426 467.542 300.213 465.733 299.448Z" fill="#7B2BFF"/>
<path d="M479.405 203.089C479.767 202.122 480.337 201.247 481.074 200.525C484.873 196.987 490.883 197.132 495.726 196.976C498.88 196.819 502.042 196.971 505.166 197.431C508.25 198.06 511.215 199.174 513.95 200.732C515.655 201.479 517.238 202.479 518.645 203.698C521.738 206.668 522.381 211.331 522.474 215.621C522.566 219.911 518.845 263.618 519.069 263.629C513.563 263.379 508.057 263.329 502.551 263.041C499.735 262.893 496.92 262.762 494.108 262.497C492.575 262.35 491.025 262.524 489.493 262.35C487.784 262.156 487.959 261.439 486.779 260.698C486.19 260.323 485.673 260.63 485.277 260.127C484.955 259.712 485.117 258.107 485.082 257.568C484.965 255.737 484.894 253.902 484.707 252.075C484.495 250.026 483.956 248.064 483.802 245.959C483.596 240.754 483.031 235.569 482.11 230.442C481.122 225.876 479.421 221.482 478.511 216.9C477.805 213.742 477.73 210.475 478.29 207.288C478.533 205.857 478.906 204.452 479.405 203.089Z" fill="#121632"/>
<path d="M499.529 190.025C500.216 189.141 500.043 189.306 500.313 188.148L503.008 176.565L486.719 172.776L484.778 184.539C484.45 185.947 484.512 187.417 484.956 188.793C485.4 190.168 486.209 191.397 487.298 192.348L488.502 200.505C488.611 201.312 488.882 202.089 489.3 202.789C489.717 203.489 490.272 204.097 490.931 204.577C491.59 205.056 492.339 205.397 493.133 205.579C493.928 205.761 494.751 205.78 495.553 205.636C496.355 205.491 497.119 205.185 497.8 204.737C498.48 204.288 499.063 203.707 499.512 203.027C499.962 202.347 500.269 201.583 500.415 200.782C500.562 199.98 500.544 199.157 500.363 198.362L499.529 190.025Z" fill="white" stroke="#121632" stroke-miterlimit="10"/>
<path d="M488.244 194.374C489.209 194.434 490.167 194.184 490.98 193.66C491.792 193.136 492.415 192.366 492.759 191.462C492.727 191.572 492.357 191.68 492.258 191.719C491.276 192.023 490.24 192.105 489.222 191.96C488.555 191.947 487.901 191.776 487.313 191.46C487.265 191.419 487.205 191.397 487.142 191.396C487.112 191.402 487.084 191.415 487.059 191.433C487.035 191.452 487.014 191.475 487 191.502C486.924 191.666 486.895 191.848 486.917 192.028C486.939 192.207 487.011 192.377 487.125 192.517C487.339 192.696 487.501 192.929 487.593 193.192C487.654 193.5 487.696 193.812 487.718 194.125C487.728 194.228 487.978 194.31 488.244 194.374Z" fill="#121632"/>
<path d="M485.891 175.277C487.017 175.653 488.246 175.927 489.395 176.227C491.07 176.661 492.774 177.007 494.433 177.495C498.86 178.792 497.863 183.184 497.874 186.888C497.799 187.393 497.845 187.909 498.006 188.393C498.167 188.877 498.44 189.316 498.803 189.675C501.134 191.279 501.696 186.29 502.274 185.145C502.588 184.527 503.055 183.988 503.309 183.342C503.833 182.014 503.369 180.509 503.559 179.088C503.643 178.446 503.862 177.824 503.914 177.178C504.136 174.48 501.662 171.992 499.444 170.91C497.551 170.095 495.908 168.793 494.681 167.137C494.524 166.849 494.325 166.585 494.09 166.355C493.893 166.199 493.668 166.081 493.427 166.007C492.763 165.787 492.055 165.732 491.365 165.845C490.674 165.959 490.022 166.239 489.464 166.66C489.145 166.957 488.788 167.21 488.403 167.411C487.75 167.57 487.07 167.581 486.413 167.442C485.921 167.395 485.425 167.446 484.954 167.593C484.482 167.74 484.045 167.98 483.667 168.298C483.297 168.626 483.034 169.057 482.912 169.537C482.791 170.016 482.816 170.521 482.985 170.985C483.218 171.531 483.676 171.951 483.928 172.487C484.505 173.718 484.223 174.685 485.612 175.172C485.705 175.212 485.798 175.247 485.891 175.277Z" fill="#121632"/>
<path d="M496.159 185.168C496.081 185.5 496.104 185.848 496.225 186.167C496.345 186.487 496.558 186.763 496.835 186.962C497.113 187.16 497.443 187.272 497.784 187.283C498.125 187.294 498.462 187.204 498.752 187.023C499.041 186.843 499.271 186.581 499.412 186.27C499.552 185.959 499.598 185.613 499.542 185.277C499.486 184.94 499.332 184.627 499.099 184.378C498.865 184.129 498.563 183.955 498.231 183.878C498.01 183.826 497.781 183.819 497.558 183.856C497.334 183.893 497.12 183.974 496.927 184.093C496.735 184.213 496.568 184.37 496.436 184.554C496.304 184.739 496.21 184.947 496.159 185.168Z" fill="white"/>
<path d="M457.555 282.507C456.099 284.956 455.037 287.62 454.409 290.399C453.315 294.73 452.239 299.204 452.901 303.622C453.094 304.917 453.437 306.192 453.51 307.501C453.642 309.829 452.918 312.131 452.942 314.463C453.038 316.129 453.289 317.782 453.693 319.402C454.488 323.417 454.801 327.512 454.625 331.601C454.576 332.936 454.519 334.271 454.453 335.605C454.559 336.792 454.428 337.988 454.068 339.124C455.645 339.367 457.233 339.556 458.815 339.77C461.761 340.168 464.707 340.567 467.673 340.788C468.592 340.857 470.579 341.352 471.363 340.746C472.022 340.237 472.114 338.674 472.296 337.942C473.652 332.497 474.823 326.787 473.728 321.187C473.531 320.177 473.26 319.179 473.15 318.155C473.046 316.873 473.096 315.583 473.3 314.312C474.012 309.035 475.303 303.867 475.988 298.58C476.707 293.022 477.186 287.421 477.615 281.835C478.383 271.934 464.799 275.159 460.235 279.288C459.199 280.234 458.297 281.317 457.555 282.507Z" fill="#7B2BFF"/>
<path d="M416.57 159.667H416.163C416.163 159.713 416.57 159.622 416.57 159.667Z" fill="#121632"/>
<path d="M503.572 208.556C501.81 210.231 499.077 211.514 497.033 212.85C495.255 211.259 493.145 210.081 490.857 209.402C489.584 209.026 488.265 208.807 487.02 208.352C481.362 206.283 477.009 202.024 471.179 200.125C468.257 199.174 465.01 198.485 463.004 196.157C460.542 193.301 460.066 189.025 458.249 185.784C457.533 184.506 456.415 183.416 454.933 184.804C453.793 185.873 454.182 187.964 454.432 189.309C454.795 191.357 455.226 193.392 455.655 195.427C456.281 198.397 456.616 199.437 459.301 200.893C462.047 202.318 464.549 204.171 466.713 206.382C468.058 207.821 469.163 209.467 470.458 210.952C475.02 216.179 481.659 219.123 486.716 223.872C489.156 226.165 491.749 229.293 495.443 228.272C496.638 227.942 510.709 224.22 510.255 223.412C508.633 220.489 507.228 217.452 506.051 214.323C505.28 212.374 504.246 210.522 503.572 208.556Z" fill="white" stroke="#121632" stroke-miterlimit="10"/>
<path d="M518.971 217.12C516.976 220.331 513.893 222.718 510.284 223.844L518.971 217.12Z" fill="#121632"/>
<path d="M518.971 217.12C516.976 220.331 513.893 222.718 510.284 223.844" stroke="white" stroke-miterlimit="10"/>
<path d="M407.196 167.942L407.174 168.075L407.196 167.942Z" fill="white"/>
<path d="M407.196 167.942L407.174 168.075" stroke="#121632" stroke-miterlimit="10"/>
<path d="M465.657 246.728H404.332C403.818 246.728 403.32 246.551 402.92 246.229C402.52 245.906 402.243 245.456 402.134 244.954L394.518 209.681C394.448 209.353 394.452 209.013 394.53 208.687C394.608 208.361 394.757 208.057 394.968 207.796C395.178 207.535 395.445 207.324 395.747 207.179C396.049 207.034 396.38 206.959 396.715 206.958H458.04C458.554 206.958 459.053 207.135 459.452 207.457C459.852 207.78 460.13 208.23 460.239 208.732L467.856 244.005C467.926 244.333 467.922 244.673 467.844 244.999C467.766 245.325 467.616 245.63 467.406 245.891C467.195 246.152 466.929 246.362 466.626 246.507C466.324 246.652 465.993 246.728 465.657 246.728Z" fill="#121632"/>
<path d="M432.151 256.761L433.365 242.246C433.403 241.631 433.199 241.026 432.796 240.56C432.393 240.094 431.824 239.804 431.211 239.753C430.597 239.702 429.988 239.893 429.513 240.285C429.039 240.678 428.737 241.24 428.672 241.853L427.421 256.766H418.579V258.268H441.267V256.766L432.151 256.761Z" fill="#121632"/>
<path d="M421.684 215.017C421.512 213.523 419.147 213.507 419.321 215.017L419.879 219.88C420.051 221.373 422.416 221.391 422.242 219.88L421.684 215.017Z" fill="white"/>
<path d="M426.412 215.017C426.24 213.523 423.875 213.507 424.049 215.017L424.609 219.88C424.78 221.373 427.145 221.391 426.971 219.88L426.412 215.017Z" fill="white"/>
<path d="M431.133 215.017C430.962 213.523 428.598 213.507 428.771 215.017L429.33 219.88C429.502 221.373 431.867 221.391 431.693 219.88L431.133 215.017Z" fill="white"/>
<path d="M435.86 215.017C435.689 213.523 433.324 213.507 433.498 215.017L434.056 219.88C434.227 221.373 436.592 221.391 436.42 219.88L435.86 215.017Z" fill="white"/>
<path d="M440.585 215.017C440.413 213.523 438.048 213.507 438.222 215.017L438.781 219.88C438.953 221.373 441.318 221.391 441.144 219.88L440.585 215.017Z" fill="white"/>
<path d="M480.114 247.052C480.263 247.577 480.283 248.129 480.171 248.663C480.06 249.196 479.821 249.695 479.474 250.116C478.973 250.488 478.384 250.724 477.764 250.8" fill="#121632"/>
<path d="M492.054 223.976C492.132 224.374 492.324 224.741 492.609 225.03C492.893 225.319 493.255 225.519 493.652 225.604C494.049 225.689 494.461 225.655 494.839 225.507C495.216 225.359 495.542 225.104 495.776 224.772" fill="#121632"/>
<path d="M345.339 174.473C345.683 174.347 345.968 174.098 346.139 173.774C346.229 173.774 345.249 174.473 345.339 174.473Z" fill="#121632"/>
<path d="M554.119 258.139H172.353V262.361H554.119V258.139Z" fill="#121632"/>
<path d="M550.145 358.361H547.24L523.485 258.955H526.395L550.145 358.361Z" fill="#121632"/>
<path d="M523.857 358.361H520.951L497.197 258.955H500.103L523.857 358.361Z" fill="#121632"/>
<path d="M177.357 358.361H180.263L204.017 258.955H201.111L177.357 358.361Z" fill="#121632"/>
<path d="M203.645 358.361H206.55L230.304 258.955H227.398L203.645 358.361Z" fill="#121632"/>
<path d="M405.473 300.242C404.201 294.191 393.28 294.665 388.36 293.809C381.679 292.649 374.985 291.53 368.317 290.327C367.167 289.844 365.879 289.809 364.705 290.229C363.531 290.649 362.557 291.493 361.975 292.595C359.902 295.348 358.467 298.527 357.773 301.902C357.44 303.502 357.515 305.161 357.99 306.726C358.466 308.29 359.326 309.71 360.493 310.855C362.699 312.763 365.863 313.278 368.877 313.668C370.707 313.906 372.457 314.326 374.258 314.635C375.281 314.633 376.292 314.853 377.221 315.28C379.834 317.048 379.123 321.25 378.43 323.962C377.772 326.538 376.929 329.236 377.587 331.701C377.813 332.353 378.003 333.018 378.156 333.691C378.239 334.571 378.179 335.458 377.978 336.319C377.161 340.949 375.536 345.907 377.311 350.281C377.562 350.784 377.753 351.315 377.882 351.862C377.933 352.332 377.921 352.807 377.846 353.275C377.488 356.411 377.129 359.549 376.77 362.687C376.77 362.681 387.507 363.181 388.327 363.188C389.567 363.207 392.295 363.673 393.419 362.988C395.158 361.925 395.517 356.731 395.815 354.814C396.238 352.1 396.421 349.348 396.941 346.651C397.881 341.788 399.903 337.181 400.788 332.308C401.23 329.876 401.063 327.315 401.554 324.914C401.966 322.894 402.48 320.875 402.825 318.809C403.654 313.851 404.482 308.893 405.312 303.936C405.556 302.831 405.628 301.694 405.526 300.566C405.514 300.459 405.496 300.35 405.473 300.242Z" fill="#121632"/>
<path d="M403.379 328.18L402.434 330.631C401.526 332.665 400.946 334.829 400.716 337.044C400.606 339.272 401.206 341.478 401.253 343.709C401.333 347.503 399.401 350.776 399.368 354.471C399.356 355.847 399.744 357.19 399.841 358.559C399.894 359.948 399.801 361.339 399.565 362.708L398.649 369.388C398.398 371.221 397.829 372.439 399.926 372.642C405.462 373.176 410.762 372.33 416.27 371.968C416.37 371.986 416.473 371.983 416.571 371.959C416.67 371.934 416.763 371.889 416.843 371.827C416.923 371.765 416.99 371.687 417.038 371.597C417.086 371.508 417.115 371.409 417.122 371.308C419.245 363.727 420.861 356.014 421.96 348.219C422.008 347.507 422.167 346.807 422.431 346.144C422.887 345.36 423.437 344.635 424.07 343.984C425.481 342.233 425.515 340.408 426.125 338.375C426.715 336.403 427.416 334.509 427.856 332.461C428.898 327.608 429.932 322.754 430.959 317.898C431.808 313.871 432.817 310.273 430.682 306.435C429.924 305.225 428.942 304.171 427.789 303.329C418.052 295.485 406.036 291.007 393.541 290.566C388.903 290.414 383.081 290.116 381.345 285.81C380.894 284.122 380.639 282.388 380.587 280.641C379.817 275.597 371.987 274.417 367.909 275.732C362.403 277.508 360.691 284.33 360.082 290.075C359.581 294.778 359.254 299.625 360.606 304.156C362.622 310.914 368.257 316.177 374.712 319.006C379.839 321.073 385.293 322.212 390.819 322.372C395.02 322.623 399.165 321.827 403.32 321.358C406.268 321.025 405.814 321.858 404.87 324.304C404.373 325.598 403.876 326.889 403.379 328.18Z" fill="#7B2BFF"/>
<path d="M366.437 202.947C366.591 203.679 366.732 204.413 366.86 205.15C367.11 206.6 367.251 208.269 366.271 209.367C365.703 210.002 364.848 210.324 364.269 210.953C363.894 211.458 363.635 212.039 363.509 212.655C363.383 213.271 363.393 213.907 363.539 214.518C363.718 215.93 363.825 217.35 363.859 218.773C363.942 220.334 364.624 221.776 364.558 223.376C364.568 224.048 364.436 224.715 364.17 225.333C363.904 225.951 363.51 226.506 363.015 226.961C362.52 227.416 361.934 227.761 361.295 227.973C360.657 228.186 359.981 228.261 359.312 228.193C357.584 228.068 355.634 227.839 354.593 226.454C354.133 225.74 353.827 224.937 353.695 224.098C352.274 217.891 350.854 211.393 352.458 205.23C352.965 202.786 353.876 200.444 355.155 198.301C356.092 196.704 357.247 195.245 358.586 193.966C359.193 193.437 359.953 193.115 360.755 193.046C361.558 192.977 362.361 193.165 363.05 193.583C363.847 194.312 364.404 195.265 364.648 196.316C365.366 198.492 365.964 200.706 366.437 202.947Z" fill="white" stroke="#121632" stroke-miterlimit="10"/>
<path d="M382.213 228.686C382.385 227.537 382.804 226.439 383.44 225.467C384.077 224.495 384.916 223.672 385.901 223.055C388.066 221.717 390.346 220.574 392.714 219.639C393.03 219.523 393.34 219.409 393.66 219.296C399.906 217.068 406.474 215.696 412.618 213.188C419.417 210.412 425.959 207.108 432.622 204.036C437.125 202.082 441.405 199.649 445.386 196.778C448.735 194.253 447.682 189.2 449.287 185.73C449.977 184.236 451.281 182.684 452.485 184.71C453.604 186.593 453.28 189.09 453.551 191.173C454.024 193.219 453.893 195.358 453.176 197.331C452.434 198.677 451.428 199.859 450.218 200.806L446.915 203.767C445.65 204.902 444.401 206.122 443.057 207.139C438.853 210.32 434.803 213.691 430.907 217.253C427.066 220.764 423.565 224.369 419.15 227.231C414.831 230.078 410.099 232.243 405.121 233.649L404.88 233.714C400 235.042 395.545 237.028 390.315 236.488C386.243 236.056 381.432 233.39 382.213 228.686Z" fill="white" stroke="#121632" stroke-miterlimit="10"/>
<path d="M379.247 279.032C379.247 279.182 365.869 279.863 364.638 279.94C362.225 280.092 359.122 280.83 356.745 280.427C355.229 280.169 354.581 278.567 352.786 278.904C351.709 279.108 350.434 279.496 349.642 278.739C349.194 278.185 348.971 277.483 349.016 276.772L348.182 261.667C347.953 257.509 342.832 256.369 339.841 254.474L333.729 250.604C337.604 242.492 342.806 235.084 349.121 228.686C355.686 221.848 360.347 221.226 369.948 221.133C377.719 221.057 385.452 220.03 392.973 218.076C394.769 224.445 396.671 230.872 398.398 237.212C393.717 239.522 388.85 241.433 383.847 242.924C383.164 243.016 382.507 243.245 381.914 243.597C381.321 243.948 380.805 244.416 380.396 244.971C379.988 245.526 379.695 246.158 379.535 246.828C379.376 247.499 379.353 248.195 379.467 248.874C379.397 258.926 379.323 268.978 379.247 279.032Z" fill="#121632"/>
<path d="M546.199 424.906H523.321" stroke="#121632" stroke-miterlimit="10"/>
<path d="M528.851 367.392C528.863 367.165 528.888 366.939 528.925 366.715C529.33 364.258 531.263 362.387 532.587 360.276C533.877 358.211 534.61 355.847 534.715 353.415C534.905 348.879 534.773 343.056 536.727 338.856C538.487 335.07 542.676 333.015 544.824 329.456C545.851 327.4 546.553 325.198 546.907 322.927C547.624 319.329 549.192 315.954 551.478 313.085C553.432 311.014 555.658 309.218 558.095 307.745C560.332 306.115 562.764 304.77 565.334 303.741C568.758 302.532 572.558 302.132 574.146 305.661C575.427 308.509 574.782 312.543 573.43 315.231C572.116 317.493 570.505 319.569 568.64 321.404C565.601 324.77 562.821 328.361 560.323 332.147C559.554 333.157 559.026 334.33 558.779 335.575C558.753 336.802 558.88 338.027 559.155 339.223C559.933 345.4 557.385 350.391 552.616 354.153C548.85 357.124 546.5 358.804 545.551 363.946C544.966 367.127 544.703 370.504 542.935 373.206C542.158 374.276 541.315 375.296 540.411 376.261C537.221 380.028 535.269 384.687 534.821 389.603C534.605 392.044 534.089 397.55 530.165 396.442C525.365 395.087 525.949 381.065 527.355 377.742C528.098 376.401 528.695 374.984 529.137 373.516C529.523 371.507 528.739 369.428 528.851 367.392Z" fill="#121632"/>
<path d="M509.293 375.549C508.253 374.869 507.402 373.936 506.821 372.837C505.357 369.761 507.619 367.655 507.789 364.761C507.943 362.142 505.682 360.489 504.247 358.667C503.357 357.506 502.792 356.129 502.61 354.677C502.428 353.226 502.637 351.752 503.213 350.408C503.734 349.236 504.556 348.075 504.378 346.805C504.128 345.9 503.7 345.053 503.119 344.314C502.441 343.156 502.069 341.845 502.038 340.504C502.007 339.163 502.318 337.836 502.942 336.648C503.659 335.319 504.779 334.165 505.085 332.686C505.226 331.681 505.17 330.658 504.921 329.674C504.202 326.469 503.88 323.188 503.964 319.905C503.976 318.462 504.384 317.05 505.144 315.823C505.48 315.256 505.979 314.803 506.577 314.525C507.175 314.247 507.842 314.156 508.493 314.265C509.888 314.633 510.073 315.747 510.566 316.87C511.778 319.975 512.594 323.22 512.996 326.528C513.07 327.146 513.278 327.74 513.606 328.269C514.044 328.794 514.578 329.231 515.18 329.557C518.871 331.95 521.885 335.9 521.863 340.299C521.851 342.878 520.816 345.367 520.781 347.945C520.723 348.608 520.885 349.271 521.241 349.832C521.653 350.279 522.161 350.626 522.727 350.848C524.384 351.585 525.751 352.849 526.613 354.445C527.364 356.359 527.376 358.484 526.648 360.407C526.037 362.348 525.06 364.161 524.412 366.086C524.226 366.557 524.141 367.062 524.162 367.569C524.28 368.77 525.267 369.343 525.914 370.23C526.444 371.035 526.823 371.928 527.033 372.868C527.996 375.7 528.998 378.021 528.534 381.113C528.352 382.341 527.989 383.54 527.856 384.775C527.796 387.255 528.059 389.733 528.637 392.145C528.887 393.772 529.502 397.579 527.828 398.706C526.389 399.675 524.346 398.08 523.138 397.378C519.342 395.171 516.669 393.398 516.063 388.857C515.632 385.622 516.063 381.903 513.926 379.166C512.556 377.753 510.997 376.536 509.293 375.549Z" fill="#7B2BFF"/>
<path d="M534.292 377.54C535.214 375.111 536.47 372.823 538.022 370.74C539.148 369.229 540.432 367.829 541.437 366.235C543.045 363.677 543.888 360.703 545.441 358.114C547.832 354.147 552.606 351.881 556.984 354.143C558.492 354.998 559.881 356.05 561.113 357.271C562.57 358.545 563.916 359.939 565.137 361.44C567.357 364.634 569.065 368.154 570.202 371.873L574.894 384.805C575.645 386.855 577.379 391.527 575.67 393.554C574.011 395.521 570.361 392.688 569.606 391.058C569.108 389.983 568.359 389.044 567.422 388.319C566.24 387.404 564.726 386.792 563.996 385.486C563.238 384.127 563.37 382.107 561.984 381.405C561.565 381.244 561.135 381.112 560.698 381.01C559.551 380.459 558.632 379.525 558.101 378.369C556.628 375.904 555.503 373.129 553.924 370.753C552.923 371.055 552.035 374.08 551.35 375.042C550.356 376.444 549.128 377.666 547.721 378.653C545.574 380.149 542.947 381.166 541.531 383.365C540.835 384.643 540.322 386.013 540.007 387.434C539.405 389.427 537.519 395.175 534.439 394.201C532.326 393.533 532.43 389.973 532.4 388.287C532.341 384.617 532.983 380.969 534.292 377.54Z" fill="#7B2BFF"/>
<path d="M550.492 389.669H505.846V395.25H509.43L512.338 411.733C512.996 415.453 514.943 418.823 517.838 421.251C520.733 423.679 524.391 425.01 528.169 425.009C531.948 425.009 535.606 423.678 538.501 421.25C541.396 418.821 543.343 415.45 544 411.729L546.908 395.246H550.492V389.669Z" fill="#121632"/>
<path d="M508.17 395.714H548.166" stroke="white" stroke-miterlimit="10"/>
<path d="M365.524 291.385L376.322 292.687C382.787 293.465 389.81 294.513 394.278 299.251C396.972 302.343 398.587 306.228 398.88 310.318C399.16 314.379 398.998 318.459 398.398 322.485" stroke="white" stroke-width="2" stroke-miterlimit="10"/>
<path d="M358.104 320.851H355.913V369.175H358.104V320.851Z" fill="#121632"/>
<path d="M337.853 379.315C337.853 372.182 350.479 369.188 356.788 369.179C364.296 369.164 375.724 371.932 375.724 379.315" stroke="#121632" stroke-width="2" stroke-miterlimit="10"/>
<path d="M357.001 381.223V369.371" stroke="#121632" stroke-width="2" stroke-miterlimit="10"/>
<path d="M378.822 381.037C378.822 381.65 378.64 382.249 378.3 382.758C377.959 383.268 377.476 383.665 376.909 383.899C376.343 384.134 375.72 384.195 375.119 384.076C374.518 383.956 373.966 383.661 373.533 383.228C373.1 382.795 372.804 382.242 372.685 381.641C372.565 381.04 372.627 380.417 372.861 379.851C373.096 379.285 373.493 378.801 374.002 378.461C374.512 378.12 375.111 377.939 375.724 377.939C376.131 377.938 376.534 378.019 376.91 378.174C377.286 378.33 377.627 378.558 377.915 378.846C378.203 379.133 378.431 379.475 378.587 379.851C378.742 380.227 378.822 380.63 378.822 381.037Z" fill="#121632"/>
<path d="M360.043 381.037C360.043 381.65 359.862 382.249 359.521 382.758C359.181 383.268 358.697 383.665 358.131 383.899C357.564 384.134 356.941 384.195 356.34 384.076C355.739 383.956 355.187 383.661 354.754 383.228C354.321 382.795 354.026 382.242 353.906 381.641C353.787 381.04 353.848 380.417 354.082 379.851C354.317 379.285 354.714 378.801 355.224 378.461C355.733 378.12 356.332 377.939 356.945 377.939C357.352 377.938 357.755 378.019 358.131 378.174C358.507 378.33 358.848 378.558 359.136 378.846C359.424 379.133 359.652 379.475 359.808 379.851C359.963 380.227 360.043 380.63 360.043 381.037Z" fill="#121632"/>
<path d="M341.264 381.037C341.264 381.65 341.083 382.249 340.742 382.758C340.402 383.268 339.918 383.665 339.352 383.899C338.786 384.134 338.163 384.195 337.562 384.076C336.961 383.956 336.409 383.661 335.975 383.228C335.542 382.795 335.247 382.242 335.127 381.641C335.008 381.04 335.069 380.417 335.304 379.851C335.538 379.285 335.935 378.801 336.445 378.461C336.954 378.12 337.553 377.939 338.166 377.939C338.573 377.938 338.976 378.019 339.352 378.174C339.728 378.33 340.07 378.558 340.357 378.846C340.645 379.133 340.873 379.475 341.029 379.851C341.185 380.227 341.265 380.63 341.264 381.037Z" fill="#121632"/>
<path d="M371.869 302.652V261.155C371.869 253.974 365.286 248.151 357.165 248.151H340.974C332.852 248.151 326.269 253.974 326.269 261.155V307.546C326.269 317.792 335.748 326.176 347.334 326.176H400.122C400.741 326.212 401.349 326.002 401.814 325.591C402.278 325.18 402.561 324.603 402.601 323.984C402.561 323.366 402.277 322.788 401.813 322.378C401.349 321.968 400.741 321.757 400.122 321.793H393.514C381.56 321.793 371.869 313.224 371.869 302.652Z" fill="white" stroke="#121632" stroke-miterlimit="10"/>
<path d="M343.834 191.32C341.652 191.326 339.482 191.645 337.392 192.27C333.374 193.7 331.54 196.703 329.498 200.052C327.445 203.419 323.992 205.464 321.412 208.366C319.071 211.117 317.666 214.542 317.403 218.145C317.14 221.747 318.031 225.34 319.948 228.402C321.283 230.37 322.946 232.095 324.863 233.502C335.388 241.463 352.554 235.775 358.675 224.598C361.908 218.693 360.677 211.449 359.358 204.847C358.633 201.218 359.053 198.356 362.823 196.474C363.83 196.075 364.811 195.616 365.762 195.098C366.828 194.312 367.601 193.193 367.96 191.918C368.319 190.643 368.242 189.285 367.743 188.059C367.198 186.852 366.344 185.811 365.267 185.04C364.191 184.269 362.93 183.796 361.612 183.668C360.471 183.524 359.312 183.672 358.244 184.098C355.742 185.149 354.343 187.817 352.113 189.36C349.726 191.007 346.797 191.166 343.834 191.32Z" fill="white" stroke="#121632" stroke-miterlimit="10"/>
<path d="M413.171 225.457C413.046 225.513 413.088 225.699 413.16 225.816C413.404 226.168 413.739 226.448 414.13 226.625C414.52 226.802 414.951 226.871 415.377 226.823C416.231 226.715 417.03 226.341 417.66 225.753" fill="#121632"/>
<path d="M161.349 368.059C164.576 367.771 167.83 368.065 170.954 368.927C170.931 363.489 170.78 358.021 170.503 352.523C170.322 348.894 168.968 345.574 164.796 344.866C162.266 344.435 160.315 345.286 159.54 347.387C157.651 352.473 160.022 362.259 161.349 368.059Z" fill="white" stroke="#121632" stroke-miterlimit="10"/>
<path d="M148.623 324.746C148.998 328.22 148.398 332.167 148.265 335.704C148.113 339.759 150.017 342.855 150.475 346.729C150.855 350.452 150.981 354.198 150.85 357.938C150.849 357.977 150.856 358.015 150.87 358.05C150.884 358.086 150.905 358.118 150.932 358.146C150.959 358.173 150.991 358.195 151.026 358.209C151.062 358.224 151.1 358.231 151.138 358.231H174.742C174.814 358.231 174.884 358.204 174.937 358.155C174.99 358.107 175.023 358.04 175.03 357.968L175.482 353.422C175.963 350.218 175.78 346.949 174.942 343.819C174.532 342.405 174.194 340.97 173.929 339.521C173.498 337.217 173.211 334.866 172.99 332.604C172.652 329.125 172.657 325.621 172.357 322.139C172.066 318.744 171.481 315.381 170.906 312.025C169.154 301.854 167.383 291.674 164.944 281.64C163.718 276.594 162.316 271.588 160.673 266.664C158.756 260.817 156.235 255.186 153.149 249.863C151.263 246.652 149.019 243.143 145.255 241.962C142.279 240.841 139.005 240.801 136.002 241.847C132.025 243.517 128.947 246.777 125.669 249.47L124.325 256.036C123.465 261.457 124.467 267.009 127.168 271.787C128.196 273.44 129.137 275.146 129.988 276.897C131.114 279.576 131.332 282.543 132.193 285.318C133.158 288.017 134.392 290.613 135.878 293.065C141.103 302.555 147.453 313.813 148.623 324.746Z" fill="#121632"/>
<path d="M182.974 244.565C183.493 246.846 183.119 249.724 184.586 251.72C186.028 253.685 190.453 254.359 192.699 255.167C193.205 255.303 193.668 255.565 194.045 255.929C194.88 256.893 194.135 258.527 192.963 259.033C191.736 259.412 190.421 259.399 189.202 258.997L180.381 257.046C179.772 256.942 179.181 256.748 178.629 256.47C177.128 255.622 176.603 253.741 176.377 252.034C174.739 239.851 163.306 231.77 159.435 220.36C158.505 217.412 157.769 214.406 157.23 211.363C156.348 206.942 155.529 202.502 154.583 198.098C153.902 194.93 152.114 192.109 154.014 188.956C154.79 187.771 155.942 186.882 157.284 186.43C158.627 185.978 160.082 185.99 161.417 186.463C165.663 188.036 167.131 192.766 168.441 196.578C170.266 201.886 171.782 206.714 171.468 212.431C171.249 213.935 171.336 215.467 171.724 216.936C172.492 218.449 173.514 219.817 174.747 220.982C178.418 225.361 178.995 231.243 180.313 236.587C180.979 239.279 182.288 241.779 182.941 244.418C182.95 244.458 182.963 244.51 182.974 244.565Z" fill="white" stroke="#121632" stroke-miterlimit="10"/>
<path d="M118.585 373.223C121.736 372.933 124.913 373.215 127.964 374.055C129.367 368.837 130.652 363.591 131.819 358.316C132.588 354.841 132.107 351.65 128.121 350.97C127.005 350.724 125.841 350.824 124.783 351.256C123.725 351.688 122.824 352.432 122.199 353.389C118.979 358.268 118.781 367.658 118.585 373.223Z" fill="white" stroke="#121632" stroke-miterlimit="10"/>
<path d="M143.833 379.791C141.53 381.035 138.908 381.562 136.303 381.306C136.044 381.3 135.785 381.294 135.526 381.294C131.506 381.294 127.49 381.149 123.478 380.861C121.766 380.886 120.079 380.446 118.597 379.587C116.979 378.418 117.221 376.433 117.611 374.68C117.949 373.176 118.156 371.646 118.23 370.107C120.129 370.814 122.147 371.149 124.173 371.091C125.272 370.987 126.347 370.703 127.354 370.253C127.853 370.028 128.329 369.755 128.776 369.438C129.015 369.267 129.688 368.47 129.972 368.532C130.234 368.591 130.413 369.296 130.539 369.5C130.854 369.978 131.228 370.414 131.653 370.797C132.456 371.556 133.406 372.141 134.445 372.517C135.403 372.822 136.384 373.048 137.379 373.192C138.788 373.448 140.187 373.75 141.577 374.1C142.448 374.274 143.283 374.594 144.047 375.047C144.427 375.278 144.748 375.592 144.987 375.966C145.225 376.34 145.375 376.764 145.424 377.205C145.416 377.697 145.285 378.178 145.043 378.605C144.801 379.033 144.457 379.393 144.04 379.653L143.833 379.791Z" fill="#121632"/>
<path d="M185.459 373.689C185.218 374.28 184.836 374.802 184.345 375.209C183.855 375.617 183.272 375.898 182.647 376.027C177.255 377.624 171.46 376.093 165.857 376.549C164.486 376.776 163.088 376.779 161.717 376.556C158.64 375.783 158.724 371.967 159.451 369.491C159.96 368.414 160.162 367.217 160.034 366.032C162.522 366.549 165.082 366.612 167.592 366.217C168.545 366.119 169.461 365.8 170.269 365.285C170.602 365.046 170.98 364.732 171.368 364.862C171.612 364.985 171.807 365.188 171.919 365.438C173.099 367.359 174.751 368.074 176.658 369.048C177.399 369.497 178.188 369.863 179.01 370.139C180.121 370.443 181.262 370.656 182.388 370.899C183.666 371.174 185.185 371.677 185.462 372.955C185.513 373.197 185.512 373.447 185.459 373.689Z" fill="#7B2BFF"/>
<path d="M146.748 290.727C146.165 284.971 145.966 279.205 145.678 273.385C145.358 267.861 144.739 262.36 143.824 256.903C143.505 254.878 143.756 253.084 143.107 251.091C142.304 248.509 141.21 246.028 139.845 243.694C137.894 240.222 134.813 237.522 131.114 236.046C129.877 235.554 128.547 235.342 127.219 235.425C125.891 235.508 124.597 235.885 123.432 236.527C121.335 238.002 119.717 240.06 118.778 242.445C118.095 243.829 117.412 245.213 116.731 246.597C115.144 249.579 113.838 252.702 112.829 255.926C111.822 259.17 111.738 262.63 112.588 265.919C113.197 267.99 114.372 269.129 115.354 270.936C116.584 273.18 117.282 275.676 117.395 278.232C117.464 280.066 117.203 281.894 117.134 283.728C117.092 287.854 117.68 291.963 118.877 295.912C119.379 297.465 119.709 299.069 119.861 300.694C119.855 302.036 119.777 303.376 119.627 304.71C119.4 308.339 120.096 311.93 120.287 315.541C120.445 319.005 119.782 322.456 118.353 325.615C117.463 327.786 116.999 330.108 116.986 332.455C116.97 336.034 117.563 339.676 116.498 343.164C116.175 344.22 115.702 345.221 115.286 346.243C113.663 350.698 112.589 355.334 112.086 360.048C112.077 360.107 112.079 360.168 112.094 360.225C112.108 360.283 112.134 360.338 112.17 360.386C112.206 360.434 112.251 360.474 112.302 360.504C112.354 360.534 112.411 360.554 112.47 360.561C114.117 360.773 119.694 361.885 120.206 361.945C125.316 362.541 130.014 360.808 134.983 361.969C135.091 361.995 135.204 361.981 135.302 361.929C135.4 361.877 135.475 361.791 135.514 361.688C139.335 351.118 142.287 340.255 144.341 329.205C144.934 326.008 144.508 322.987 144.646 319.841C144.754 318.463 144.997 317.099 145.372 315.769C147.186 309.512 148.625 303.582 147.567 297.034C147.228 294.934 146.962 292.832 146.748 290.727Z" fill="#7B2BFF"/>
<path d="M154.536 184.091C152.165 182.019 149.287 180.614 146.195 180.018C145.1 179.756 143.958 179.765 142.867 180.045C142.157 180.301 141.484 180.65 140.865 181.081C136.18 183.897 132.413 188.011 130.02 192.925C128.255 197.09 127.014 201.458 126.326 205.928C125.841 208.53 121.129 240.25 119.58 239.799C121.423 240.337 123.307 240.731 125.111 241.413C127.698 242.391 130.289 243.405 132.834 244.489C137.814 246.837 142.977 248.776 148.272 250.286C149.024 249.72 149.621 248.974 150.008 248.116C151.296 245.303 152.197 242.327 152.684 239.27C154.38 228.287 155.187 216.537 158.02 205.794C159.308 200.899 160.205 195.438 158.742 190.479C157.97 187.996 156.512 185.782 154.536 184.091Z" fill="#121632"/>
<path d="M151.023 244.047C152.383 244.665 153.786 245.257 155.191 245.906C161.67 248.898 167.784 252.622 173.414 257.007C171.639 258.45 170.472 260.509 170.147 262.774C170.011 265.034 171.755 267.492 174.016 267.387C175.321 265.92 175.499 263.778 176.446 262.057C177.68 259.82 181.363 259.898 182.193 258.213C183.068 256.439 181.079 254.05 180.094 252.785C177.283 249.173 172.907 247.082 170.083 243.525C169.073 242.256 168.344 240.791 167.442 239.444C165.98 237.268 164.081 235.42 161.866 234.02C157.54 231.289 156.003 227.448 153.888 222.933C153.191 221.561 152.628 220.125 152.209 218.644C151.732 216.725 151.743 214.721 151.441 212.763C150.929 209.978 150.015 207.283 148.728 204.762C147.727 202.394 146.286 200.237 144.483 198.405C143.574 197.497 142.472 196.805 141.258 196.382C140.045 195.959 138.752 195.814 137.475 195.96C134.338 196.488 131.97 199.307 131.064 202.357C130.337 205.464 130.248 208.687 130.802 211.829C130.997 214.893 131.757 217.894 133.044 220.681C134.421 223.278 136.423 225.495 137.878 228.052C139.264 230.486 140.006 233.119 141.217 235.646C143.356 240.144 146.997 242.213 151.023 244.047Z" fill="white" stroke="#121632" stroke-miterlimit="10"/>
<path d="M149.156 182.367C148.489 183.233 148 184.223 147.716 185.278C146.22 190.759 148.341 197.509 150.632 202.471C151.475 204.295 151.819 207.379 153.851 208.336C155.236 208.989 156.242 207.96 157.392 207.382C158.756 206.693 160.213 206.12 161.589 205.406C164.676 203.808 167.7 202.098 170.66 200.276C169.057 192.792 165.468 185.175 158.788 181.438C157.761 180.765 156.6 180.321 155.386 180.138C154.172 179.955 152.932 180.037 151.752 180.378C150.722 180.793 149.825 181.48 149.156 182.367Z" fill="#121632"/>
<path d="M140.965 177.136C141.611 175.135 142.043 173.072 142.253 170.98C142.286 168.537 142.661 166.11 143.366 163.77C144.743 160.254 149.656 157.973 153.252 158.84C158.317 160.057 156.793 168.566 156.325 172.354C156.096 174.204 154.698 175.518 153.714 177.049C152.073 179.601 151.847 183.807 151.599 186.802C151.604 187.148 151.51 187.488 151.327 187.782C151.041 188.065 150.667 188.242 150.267 188.283C148.241 188.811 146.16 189.102 144.067 189.149C141.314 189.101 136.983 188.148 138.267 184.582C139.202 182.016 140.192 179.62 140.965 177.136Z" fill="white" stroke="#121632" stroke-miterlimit="10"/>
<path d="M154.894 152.576C154.131 152.521 153.365 152.619 152.64 152.863C151.915 153.107 151.245 153.493 150.67 153.997C150.239 154.492 149.724 154.906 149.149 155.221C148.838 155.327 148.517 155.4 148.19 155.436C146.705 155.692 145.29 156.259 144.039 157.1C142.788 157.941 141.73 159.037 140.932 160.316C140.559 160.874 140.308 161.505 140.197 162.167C140.151 162.699 140.18 163.234 140.282 163.758C140.469 164.981 140.702 166.198 140.98 167.407C141.147 167.942 141.264 168.491 141.328 169.048C141.295 169.501 141.326 169.956 141.418 170.4C141.971 172.263 143.77 171.401 144.521 170.187C145.082 169.172 145.552 168.109 145.924 167.01C146.367 165.599 147.19 164.336 148.302 163.361C149.495 162.596 150.856 162.133 152.268 162.011C153.77 161.769 155.856 161.57 156.953 160.415C157.594 159.807 158.1 159.071 158.441 158.256C158.781 157.441 158.948 156.563 158.931 155.68C158.908 155.242 158.787 154.814 158.576 154.429C158.312 154.011 157.952 153.662 157.525 153.411C156.733 152.915 155.827 152.627 154.894 152.576Z" fill="#121632"/>
<path d="M147.561 166.463C147.433 166.205 147.254 165.976 147.036 165.788C146.817 165.601 146.563 165.459 146.289 165.372C146.014 165.285 145.725 165.254 145.439 165.281C145.152 165.307 144.874 165.392 144.62 165.528C144.003 165.918 143.515 166.483 143.218 167.149C142.921 167.816 142.828 168.556 142.951 169.276C142.978 169.559 143.075 169.831 143.232 170.068C143.389 170.304 143.603 170.499 143.853 170.634C144.103 170.768 144.383 170.84 144.667 170.841C144.951 170.842 145.231 170.773 145.482 170.64C145.982 170.503 146.436 170.235 146.795 169.862C147.254 169.441 147.573 168.89 147.71 168.282C147.846 167.675 147.795 167.04 147.561 166.463Z" fill="white"/>
<path d="M145.552 167.857C145.427 167.249 144.559 167.524 144.64 168.107C144.63 168.565 144.768 169.014 145.033 169.387C145.079 169.433 145.137 169.466 145.2 169.483C145.263 169.5 145.33 169.5 145.393 169.484C145.456 169.467 145.514 169.434 145.561 169.388C145.607 169.342 145.641 169.285 145.659 169.222C145.76 168.767 145.723 168.291 145.552 167.857Z" fill="#121632"/>
<path d="M145.233 235.305C145.083 235.678 145.062 236.09 145.174 236.476C145.281 236.784 145.454 237.064 145.68 237.298C145.906 237.532 146.181 237.714 146.484 237.831C146.621 237.896 146.766 237.938 146.916 237.956C147.281 237.946 147.635 237.827 147.933 237.616" fill="#121632"/>
<path d="M128.042 203.034C127.851 204.091 127.784 205.168 127.843 206.241C128.182 210.57 128.917 214.86 130.039 219.055C132.417 216.772 135.698 215.73 138.85 214.759L148.818 211.687C149.764 211.395 150.85 210.966 151.107 210.01C151.177 209.675 151.186 209.33 151.132 208.993C150.47 202.761 145.885 191.327 137.835 192.749C135.414 193.355 133.242 194.701 131.622 196.601C129.801 198.33 128.552 200.575 128.042 203.034Z" fill="#121632"/>
<path d="M144.072 194.589C143.873 194.441 143.663 194.752 143.822 194.921C145.706 196.874 147.28 199.105 148.487 201.536C149.795 204.305 150.435 207.273 151.549 210.107C151.568 210.151 151.602 210.187 151.644 210.208C151.687 210.228 151.736 210.233 151.782 210.22C151.828 210.207 151.868 210.178 151.894 210.139C151.92 210.099 151.931 210.051 151.924 210.004C150.99 204.579 148.643 197.997 144.072 194.589Z" fill="white"/>
<path d="M149.709 174.653C149.835 174.851 150.021 175.264 150.067 175.363C150.271 175.797 150.443 176.239 150.615 176.69C151.413 178.467 151.873 180.376 151.972 182.321C152.149 181.029 152.548 179.776 153.149 178.619C153.659 177.376 154.306 176.195 155.079 175.096C155.402 174.596 155.641 173.631 154.815 174.265C154.339 174.619 153.778 174.841 153.188 174.91C151.987 174.986 150.781 174.863 149.619 174.545C149.639 174.553 149.671 174.593 149.709 174.653Z" fill="#121632"/>
<path d="M151.755 169.421C151.737 169.522 151.74 169.625 151.763 169.724C151.787 169.823 151.83 169.916 151.891 169.998C152.094 170.355 152.387 170.653 152.741 170.86C152.919 170.961 153.116 171.024 153.32 171.045C153.524 171.067 153.729 171.046 153.925 170.985C154.17 170.879 154.39 170.723 154.57 170.527C154.751 170.33 154.888 170.098 154.973 169.845C155.015 169.747 155.036 169.601 154.938 169.556" fill="#121632"/>
<path d="M204.528 379.483C204.661 377.554 204.815 375.936 204.825 375C204.895 373.245 204.812 371.486 204.575 369.745C204.051 367.354 203.303 365.019 202.339 362.77C200.45 357.686 199.176 352.147 200.336 346.849C201.12 343.285 202.964 340.019 203.715 336.445C204.254 333.86 204.199 331.182 204.679 328.584C205.072 326.457 207.768 319.467 211.061 322.055C211.583 322.538 211.964 323.155 212.164 323.838C212.902 326.356 213.814 328.82 214.893 331.212C216.235 333.675 218.342 335.701 219.388 338.303C220.254 340.88 220.471 343.631 220.021 346.312C218.979 355.673 215.837 364.637 217.143 374.233C217.364 375.86 217.83 389.162 215.446 389.162C214.636 391.326 213.319 394.678 210.766 395.237C203.831 396.756 204.062 386.218 204.528 379.483Z" fill="#7B2BFF"/>
<path d="M180.559 395.79C177.841 398.351 175.82 401.562 171.77 402.217C166.698 403.04 164.114 398.237 165.928 393.773C167.123 390.836 169.61 388.665 171.767 386.342C174.178 383.743 176.247 380.846 177.924 377.723C179.175 375.4 180.283 372.854 182.41 371.298C183.865 370.361 185.475 369.689 187.165 369.314C190.446 368.381 193.972 367.45 197.207 368.535C199.2 369.32 200.989 370.545 202.442 372.119C211.28 380.958 210.62 392.398 208.573 403.79C208.555 404.316 208.42 404.831 208.179 405.299C207.938 405.767 207.597 406.175 207.179 406.496C205.678 407.297 203.998 405.646 203.47 404.034C202.195 400.134 202.97 396.681 200.407 393.219C198.335 390.416 194.578 388.195 193.442 384.866C193.227 383.815 192.83 382.81 192.268 381.895C191.591 381.063 190.089 380.783 189.528 381.696C189.299 382.215 189.237 382.791 189.35 383.346C189.463 385.141 189.125 386.936 188.366 388.567C187.608 390.198 186.453 391.613 185.008 392.683C183.815 393.547 182.446 394.157 181.32 395.105C181.063 395.326 180.808 395.556 180.559 395.79Z" fill="#121632"/>
<path d="M209.715 384.079C209.694 383.565 209.71 383.05 209.762 382.537C210.364 377.149 217.857 376.385 221.575 373.976C225.12 371.677 227.305 366.863 231.88 371.584C234.107 374.285 235.533 377.555 235.998 381.025C236.859 386.948 237.686 392.874 238.478 398.805C238.785 400.111 238.691 401.479 238.207 402.73C237.081 404.933 233.741 405.118 231.747 403.65C228.963 401.937 227.945 397.287 226.867 394.49C226.264 393.205 225.948 391.804 225.94 390.385C226.065 388.648 227.106 386.993 226.83 385.275C226.742 384.735 226.368 384.118 225.829 384.189C225.658 384.223 225.498 384.294 225.358 384.397C222.9 385.986 222.077 388.474 220.563 390.795C218.971 393.235 217.724 392.951 215.885 394.634C212.067 398.127 213.225 406.003 211.843 410.697C211.489 411.899 210.317 413.324 209.278 412.625C208.897 412.291 208.65 411.83 208.585 411.327C207.315 406.076 207.33 400.597 208.628 395.353C209.329 393.188 209.796 390.954 210.018 388.689C210.053 387.151 209.767 385.612 209.715 384.079Z" fill="#7B2BFF"/>
<path d="M226.428 401.153H189.824V405.727H192.762L195.139 419.242C195.679 422.293 197.275 425.056 199.649 427.047C202.023 429.038 205.022 430.129 208.12 430.129C211.218 430.129 214.217 429.038 216.59 427.047C218.964 425.056 220.56 422.293 221.099 419.242L223.484 405.727H226.422L226.428 401.153Z" fill="#121632"/>
<path d="M191.73 406.109H224.521" stroke="white" stroke-miterlimit="10"/>
<path d="M200.445 430.345H234.926" stroke="#121632" stroke-miterlimit="10"/>
<path d="M497.989 184.82C498.13 184.8 498.274 184.822 498.403 184.883C498.531 184.944 498.639 185.042 498.713 185.164C498.786 185.286 498.822 185.427 498.816 185.57C498.81 185.712 498.762 185.85 498.678 185.965C498.529 186.145 498.329 186.276 498.104 186.34C498.083 186.348 498.048 186.34 498.051 186.323" fill="#121632"/>
<path d="M486.113 186.64C486.095 186.753 486.102 186.869 486.132 186.98C486.163 187.09 486.216 187.193 486.29 187.282C486.501 187.607 486.8 187.867 487.151 188.032C487.365 188.122 487.596 188.167 487.828 188.166C488.061 188.165 488.291 188.118 488.505 188.026C488.933 187.837 489.279 187.5 489.479 187.076H489.401" fill="#121632"/>
<g filter="url(#filter0_d_901_1363)">
<rect x="43.3359" y="41.7134" width="199.949" height="52.7137" rx="7.27086" fill="white"/>
<g clip-path="url(#clip0_901_1363)">
<rect x="54.2422" y="52.6197" width="65.4377" height="14.5417" rx="7.27086" fill="#DCDFE6"/>
<rect x="54.2421" y="76.2499" width="178.136" height="7.27086" rx="3.63543" fill="#DCDFE6"/>
</g>
</g>
<g filter="url(#filter1_d_901_1363)">
<rect x="338.614" y="399.919" width="199.949" height="52.7137" rx="7.27086" fill="white"/>
<g clip-path="url(#clip1_901_1363)">
<rect x="349.52" y="410.826" width="65.4377" height="14.5417" rx="7.27086" fill="#DCDFE6"/>
<rect x="349.52" y="434.456" width="178.136" height="7.27086" rx="3.63543" fill="#DCDFE6"/>
</g>
</g>
<defs>
<filter id="filter0_d_901_1363" x="0.619603" y="4.45025" width="281.746" height="134.511" filterUnits="userSpaceOnUse" color-interpolation-filters="sRGB">
<feFlood flood-opacity="0" result="BackgroundImageFix"/>
<feColorMatrix in="SourceAlpha" type="matrix" values="0 0 0 0 0 0 0 0 0 0 0 0 0 0 0 0 0 0 127 0" result="hardAlpha"/>
<feOffset dx="-1.81771" dy="3.63543"/>
<feGaussianBlur stdDeviation="20.4493"/>
<feColorMatrix type="matrix" values="0 0 0 0 0 0 0 0 0 0 0 0 0 0 0 0 0 0 0.13 0"/>
<feBlend mode="normal" in2="BackgroundImageFix" result="effect1_dropShadow_901_1363"/>
<feBlend mode="normal" in="SourceGraphic" in2="effect1_dropShadow_901_1363" result="shape"/>
</filter>
<filter id="filter1_d_901_1363" x="295.897" y="362.656" width="281.746" height="134.511" filterUnits="userSpaceOnUse" color-interpolation-filters="sRGB">
<feFlood flood-opacity="0" result="BackgroundImageFix"/>
<feColorMatrix in="SourceAlpha" type="matrix" values="0 0 0 0 0 0 0 0 0 0 0 0 0 0 0 0 0 0 127 0" result="hardAlpha"/>
<feOffset dx="-1.81771" dy="3.63543"/>
<feGaussianBlur stdDeviation="20.4493"/>
<feColorMatrix type="matrix" values="0 0 0 0 0 0 0 0 0 0 0 0 0 0 0 0 0 0 0.13 0"/>
<feBlend mode="normal" in2="BackgroundImageFix" result="effect1_dropShadow_901_1363"/>
<feBlend mode="normal" in="SourceGraphic" in2="effect1_dropShadow_901_1363" result="shape"/>
</filter>
<linearGradient id="paint0_linear_901_1363" x1="380.732" y1="124.93" x2="161.271" y2="535.264" gradientUnits="userSpaceOnUse">
<stop stop-color="#548DBF"/>
<stop offset="1" stop-color="#A62957"/>
</linearGradient>
<clipPath id="clip0_901_1363">
<rect width="178.136" height="30.9011" fill="white" transform="translate(54.2422 52.6197)"/>
</clipPath>
<clipPath id="clip1_901_1363">
<rect width="178.136" height="30.9011" fill="white" transform="translate(349.52 410.826)"/>
</clipPath>
</defs>
</svg>
